<svg xmlns="http://www.w3.org/2000/svg">
    <defs>
        <style><![CDATA[
      .sprite { display: none; }
      .sprite:target { display: inline; }
    ]]></style>
        <rect id="abstractclass-a" width="8" height="14"/>

    </defs>

    <g id="classKotlin" width="16" height="16" viewBox="0 0 16 16">
        <g id="&#226;&#140;&#152;/modifier/kotlin">
            <path id="&#226;&#140;&#152;/modifier/kotlin_2" d="M16 16H9V9H16L12.4 12.4L16 16Z" fill="#B99BF8"/>
        </g>
        <path id="Vector" fill-rule="evenodd" clip-rule="evenodd"
              d="M8 15C4.134 15 1 11.866 1 8C1 4.134 4.134 1 8 1C11.866 1 15 4.134 15 8H8V15Z" fill="#40B6E0"
              fill-opacity="0.6"/>
        <path id="Vector_2" fill-rule="evenodd" clip-rule="evenodd"
              d="M8.00001 11.0004C6.36299 10.9992 5.00021 9.68165 5.00021 8.0004C5.00021 6.3584 6.34021 5.0004 8.09821 5.0004C9.28828 5.0004 9.82941 5.27018 10.5162 5.83673L9.90001 6.55426C9.54835 6.18475 8.94835 6 8.10001 6C6.97101 6 6.00001 6.7124 6.00001 8.0004C6.00001 9.23838 6.99405 9.97382 8.00001 9.99976V11.0004V11.0004Z"
              fill="#231F20" fill-opacity="0.7"/>
    </g>

<!--    <g id="abstractClass" width="16" height="16" viewBox="0 0 16 16">-->
<!--        <g fill="none" fill-rule="evenodd">-->
<!--            <path fill="#9AA7B0" fill-opacity=".8"-->
<!--                  d="M3 3.1055C1.764 4.3685 1 6.0935 1 8.0005 1 9.9065 1.764 11.6315 3 12.8945L3 3.1055zM13 3.1055L13 12.8945C14.236 11.6315 15 9.9065 15 8.0005 15 6.0935 14.236 4.3675 13 3.1055"/>-->
<!--            <g transform="translate(4 1)">-->
<!--                <mask id="abstractclass-b" fill="#fff">-->
<!--                    <use xlink:href="#abstractclass-a"/>-->
<!--                </mask>-->
<!--                <g mask="url(#abstractclass-b)">-->
<!--                    <g transform="translate(-4 -1)">-->
<!--                        <path fill="#40B6E0" fill-opacity=".6"-->
<!--                              d="M15,8 C15,11.866 11.866,15 8,15 C4.134,15 1,11.866 1,8 C1,4.134 4.134,1 8,1 C11.866,1 15,4.134 15,8"/>-->
<!--                        <path fill="#231F20" fill-opacity=".7"-->
<!--                              d="M5,4.28253174 C4.53,4.74153174 4.028,4.978 3.1,5 C2.061,5.022 1,4.2794 1,3.0004 C1,1.7124 1.971,1 3.1,1 C3.94833171,1 4.54833171,1.18475342 4.9,1.55426025 L5.5162,0.836730957 C4.8293999,0.270175195 4.28826904,0.0004 3.0982,0.0004 C1.3402,0.0004 0.0002,1.3584 0.0002,3.0004 C0.0002,4.6824 1.3642,6.0004 3.0022,6.0004 C4.29284668,6.0004 5.0232,5.5934 5.6162,4.9814 C5.2054,4.51548783 5,4.28253174 5,4.28253174 Z"-->
<!--                              transform="translate(5 5)"/>-->
<!--                    </g>-->
<!--                </g>-->
<!--            </g>-->
<!--        </g>-->
<!--    </g>-->
</svg>
